<mxfile host="app.diagrams.net" modified="2024-05-20T00:39:36.260Z" agent="Mozilla/5.0 (Windows NT 10.0; Win64; x64) AppleWebKit/537.36 (KHTML, like Gecko) Chrome/125.0.0.0 Safari/537.36" etag="UIJ8zjEp6R-7p_ok_nRu" version="24.4.0" type="device">
  <diagram name="PÃ¡gina-1" id="v9RrJEoQbrBt0L9KB6GE">
    <mxGraphModel dx="1969" dy="2047" grid="1" gridSize="10" guides="1" tooltips="1" connect="1" arrows="1" fold="1" page="1" pageScale="1" pageWidth="827" pageHeight="1169" math="0" shadow="0">
      <root>
        <mxCell id="0" />
        <mxCell id="1" parent="0" />
        <mxCell id="gR9sVQ8ujYDy_p-osxNe-6" style="edgeStyle=orthogonalEdgeStyle;rounded=0;orthogonalLoop=1;jettySize=auto;html=1;exitX=1;exitY=0.5;exitDx=0;exitDy=0;entryX=0.5;entryY=0;entryDx=0;entryDy=0;" parent="1" source="gR9sVQ8ujYDy_p-osxNe-1" target="gR9sVQ8ujYDy_p-osxNe-3" edge="1">
          <mxGeometry relative="1" as="geometry" />
        </mxCell>
        <mxCell id="gR9sVQ8ujYDy_p-osxNe-7" style="edgeStyle=orthogonalEdgeStyle;rounded=0;orthogonalLoop=1;jettySize=auto;html=1;exitX=0.75;exitY=0;exitDx=0;exitDy=0;entryX=0.5;entryY=1;entryDx=0;entryDy=0;" parent="1" source="gR9sVQ8ujYDy_p-osxNe-1" target="gR9sVQ8ujYDy_p-osxNe-2" edge="1">
          <mxGeometry relative="1" as="geometry" />
        </mxCell>
        <mxCell id="gR9sVQ8ujYDy_p-osxNe-1" value="BE orchestractor" style="rounded=0;whiteSpace=wrap;html=1;" parent="1" vertex="1">
          <mxGeometry x="338" y="250" width="151" height="80" as="geometry" />
        </mxCell>
        <mxCell id="gR9sVQ8ujYDy_p-osxNe-21" style="edgeStyle=orthogonalEdgeStyle;rounded=0;orthogonalLoop=1;jettySize=auto;html=1;exitX=1;exitY=0.25;exitDx=0;exitDy=0;entryX=0.25;entryY=1;entryDx=0;entryDy=0;" parent="1" source="gR9sVQ8ujYDy_p-osxNe-2" edge="1">
          <mxGeometry relative="1" as="geometry">
            <mxPoint x="745.1150000000002" y="93" as="targetPoint" />
          </mxGeometry>
        </mxCell>
        <mxCell id="gR9sVQ8ujYDy_p-osxNe-2" value="Authentication" style="rounded=0;whiteSpace=wrap;html=1;" parent="1" vertex="1">
          <mxGeometry x="414" y="140" width="176" height="40" as="geometry" />
        </mxCell>
        <mxCell id="gR9sVQ8ujYDy_p-osxNe-3" value="Feedback" style="rounded=0;whiteSpace=wrap;html=1;" parent="1" vertex="1">
          <mxGeometry x="550" y="340" width="176" height="40" as="geometry" />
        </mxCell>
        <mxCell id="gR9sVQ8ujYDy_p-osxNe-4" value="2" style="ellipse;whiteSpace=wrap;html=1;aspect=fixed;" parent="1" vertex="1">
          <mxGeometry x="500" y="350" width="30" height="30" as="geometry" />
        </mxCell>
        <mxCell id="gR9sVQ8ujYDy_p-osxNe-5" value="1" style="ellipse;whiteSpace=wrap;html=1;aspect=fixed;" parent="1" vertex="1">
          <mxGeometry x="360" y="145" width="30" height="30" as="geometry" />
        </mxCell>
        <mxCell id="gR9sVQ8ujYDy_p-osxNe-9" style="edgeStyle=orthogonalEdgeStyle;rounded=0;orthogonalLoop=1;jettySize=auto;html=1;exitX=1;exitY=0.5;exitDx=0;exitDy=0;entryX=0;entryY=0.5;entryDx=0;entryDy=0;" parent="1" source="gR9sVQ8ujYDy_p-osxNe-8" target="gR9sVQ8ujYDy_p-osxNe-1" edge="1">
          <mxGeometry relative="1" as="geometry" />
        </mxCell>
        <mxCell id="gR9sVQ8ujYDy_p-osxNe-8" value="&lt;font style=&quot;font-size: 18px;&quot;&gt;1-&amp;gt;2&lt;/font&gt;" style="rounded=0;whiteSpace=wrap;html=1;" parent="1" vertex="1">
          <mxGeometry x="140" y="210" width="100" height="30" as="geometry" />
        </mxCell>
        <mxCell id="gR9sVQ8ujYDy_p-osxNe-22" value="" style="shape=image;verticalLabelPosition=bottom;labelBackgroundColor=default;verticalAlign=top;aspect=fixed;imageAspect=0;image=data:image/png,iVBORw0KGgoAAAANSUhEUgAAAmEAAAB7CAMAAAAL+aetAAAAAXNSR0IArs4c6QAAAARnQU1BAACxjwv8YQUAAADtUExURdTU1ADMmQAAAADMq5D3////////7rbmq9vmq2bu///uvP//3mbMmQDd3jrm3tv//9vuvDrMmTrdztv3/7bdqzrd3rbmvLbdmf/3zgDMvLb//2bd3mbm7v/33mbVvJDu7tvuzrb3/5Du/wDVzjrm7pDVmWbMqwDVvJD33pD37mbVmdv33mbm3mbu7v/37rZmAAA6kP//tmYAAGa2/wBmtv//25A6ANuQOgAAOpDb/wAAZv+2ZjqQ2//bkDo6kDoAAJA6OpA6Zjo6Ora2Ztu2Ztv/tmYAZjoAOraQOgA6OjoAZgA6ZmY6ANv/25BmAAkNrKsAAAAJcEhZcwAADsMAAA7DAcdvqGQAABBUSURBVHhe7V0Je9y2EY1WXtdnHTVtLKtJ2jRxnbpJ15ek+FCc9Erv//9zOicAEiS4QxLgUsH7Pu2SOAZvZh5B7C5hf1BRkRlHObHZyME1wer8WZrwZlMVZkJVmBFVYUZUhRlRFWZEVZgRVWFGVIUZURVmRFWYEVVhRlSFGVFGYcc3toCbP+OiVWN1/ixNuKTCtttbXLZmTPLn9vaOHJXD0gkoprBbR8e3t3fvceGKMcmfJRW2VAIKKuzoPjn48wfb7YcnR0e/+Gh785dQ96uPYPr++ATbPMQ2pyePzk5//QCaQktq0e6xKHr9Of7kwfbTz85OT7wjLepQAbhT2I+BBBzfuPvZb7bb30JBkIq7n33OZcp1fA5KzmG/w6Dfptn69OQLoIwOf0nnEHefmEdnVEU1Nx9HPZZFnz9yAEfekRb137PCCvsxkACokYJGKuRIuU7IQdF1GMjliwfw8uTs5uP720/vPfnqHqgJLq4voconBsrunBxRzZM/PG73YLOLoc8fpnsD6HtHIup0lyzsx0ACoOb0KSWgkYpPn8I99fREGk3JQUmF3aTAMx6CP9s/PoVzvCLg5KFPzCNw5QhCwddKu8fC6POH6SJ970hEnRRW2I+BBDBbTEB3KiRLzU4WFLxL4tXhuR4dfw3LLLgo+hTGNUFIpAeWLYg+f5IKU+q80i/rx0ACmG2fwlyWmp3Y8n4ouQ67QTd24Xf/Q0zFLbix09RMC4I7J3Sb0TkMap58xXfJoAcdL4c+f5iu3CXFkYg63yXL+jGQAPg7fXr8CSSgkQq9RjRL43NQUGFAGXjymvHuPb4sHso5+0ZQhXFNR49l0eePOuJXzG5V7aljzZ3CfgwkAGoIIH3xgKSoCqMSzdKoHJRUGLzC55Rv5DPMN9vtn+BzL067dAA1W/64LwrDlvgtdLvHsujz5+gYP/N/jbpyjkTUsc2twn4MJADKPv5cvm/RVECZKMwRH5+DMgq7Rkj7Q2uXw8JAAlhNGVEVZkRVmBFVYUZUhRlRFWbE6vxZmnBVmBFVYUagwjYVFRlRFVaRFx98sM2JzUYOrglW58/ShKvCjKgKM6IqzIiqMCOqwoyoCjOiKsyIqjAjCips9wx/PV07qsKMKKew5y9eylGM3Ss56MH5Ra86E1VZcMAK676E04TjyM89EajCLvGLCx7NH55fbDbfvsZXwoAMuuEcvHxzJkcxVqewt+zM8xfv8G0WBBkYiQNXGNh9/gJezi++fY2hgxBS8q6+wwHfYuEoqIPnF53RY8MJhSVGHk9qAvIpTDMwGjaF9UU+p8K2lzAo/gGu3r8K4zddYVfvO2+SVWEKl4HRWIHCYFA31ezenD1/4YYfn0x1kAbY7vhOwKOAL3i+eQd+wj2CGryFczzQEm2AZXgfwYyKkbDq6j0co4S9pUyIFYZj49Ce+g7ePRGhq9SgGRVrc4VmwHcQw/xGiwyqpms1cBhHwz6vkgoTo/2RV6CVS4yzEAQhSOk4tOcwd1XSfAarMD6brDC2u6OEvPR+iuEdOE8tMI50c3Yl0gCKkNH596+dkaDqLQb7LYbF9cuFSGH4d/7DWZN6QMTR5RItds0Vbg7TDmJY3tjEn6EOx246DK9QdtlUioIJD0beAerIuhKkgellHEKF4Z3x6r2MRvM1XCnEY7rCvAH0MfJTTvnzJpZpiTZ49uD8IogDGQiqsDWF2fXLhU6F0aGjTnUNIkSQTvTFN1doBgjYwRmmNyw5/+Ev0Agshw7jaNym221JAIBMUE9sKdELaRJ2z/6KAnMEqQfNoOPgFMaTpvrjbF69p/cwFDaIg+wEfyzt95Pmfvz86j2XBnItIdSIr5IvQvA8jtjMiBQmM32Luifi6BIrffHNFZoB30FuIfoGnb77299hTsPprekwx6bbbSY8FHlsw4DbJ7LwBEEJ3GscGndJgLOlo9KMKXTGgB3kkNBdAUfoVxhFDk9aDXydMxJVYdrjiM0MURjHQwbebd7wXYxAFBwRT5dY6YtvrvAZ0A7QEAzr29WPry/fnV+8RC/bDvN5t9tEeDDy8CrYPfsHptwThMsoZrs/2grb7jR2MpexcYnoCHBGeEYkWxztbj/dDBo18HXeSFCFral5HLGZwf5IyDUscNqi7ogEPiMrffHNFZoB30FP+A1WCTtY8L+6hJq2w2yNbEcgwgELbI8tm5GHVwGcoAYCgqC5Tsv7IVIYfRMGjJAD/J1fkDY0lHbIJUQRocDQ0pRWtLgy5RA6P2n1h+O6EmkgdbDS90aCKl74wkscsZnBCuMLkZZNb/EPzprUHRFPl1i5F9dcQ6sZcB3EsNrfXv7zX7DE//d/0OmWw7wiS6z0hyPvACeUdEcQxqH75khECkMiADKJSwMun6gw9gbfYS2ATuGy4B2NCaO9DPzUIX0JN9A64OWMBFX4yZooxhGbGaIwIoMZJhZ00KDuiTi67I170eaUSYDLgO/AhtU+XfU8AbQdDuIZgQkPR16BJyRIJQhdRmcfoArLBnJwwkeRQ4MqbDY00psB0wnTIm40iigsXnSsF3MrTD4W5sN0wnoHGocyc9g1wtz+4MI9K/Yi/PwF3BIRXTcb/oJvLKrCjFidP0sTrgozoirMCFRYVmQfoDBW58/ShOscZkSdw4yoCjOiKsyIqjAjqsKMqAozoirMiKowI6rCjCiosNw/j8TIMWJVmBHlFJb6eYR/vu1H4pexRBWNePU+8bNtPG6fKJ+/EDNzJazY9ZYmPBT56URVYfSoAI7mn97kxyKleDScg6lfv/MojEbsfuBAsL/CXFv2x4VrNH56CgM7tFsvfD54ylM7CnVQn6lrgQdI+JlgMECOR+wx3TdufzxFqqIwDddoLK6wvgi0ozqnwuhRpVwK6/mBvs9PhwSDAXLBI3Yx+sY1KMw92TUKP02FofFcCuME4dN04JNML3n3S8qIFMLBcRVorXu3YKwwCo5YJga07MM3uj9TNck8YDewuTEDJAH7RkDKA85QG0akI2hJlJrD2F7J/ZLiASlsjt2CscKQ0MybGzOACe8fAS4POLci0tEliVBh/Ng5GAKICR5uCkRh3hD6GPkpp/x5E8u0RBvY90tyLeWakBoX6xn9uwW5R6CwHJsbM0ASACBWRCYVASoPObci0tElCacwmRxzKYwZDe3ao6nZbzoMGgT7v9SIr5IvQpru04vwHxoX2zDgJoGOeyKgLgk3jyIKw1ps6MjMs7kxA5jw/hGg8pBzOyJxlyQad0kED6zXvpxNADvIjGmSRR/7FUaj4kmrga9zRqIqvDhcP4kRvQ2Oiy0Z/bsFpUgUJn08Geg6w+bGDCDChghQeci5HZG4SxKRwtQ2ja9vEyAZoeCTbfLRsWz6KTMnnrQa+DpvJKjC1tTc9eMR4RgKBsfFhgw46dktKBFqKsxb1hN+G7u5MQOIsCECVB5ybkck7pJEpLBgJyCAaUyBXEJkbnjXHn0BMMd+Sc06FQyP60BdQZyOCJilu0S3wpzlmTY3ZgARNkSAywPO7YjEXZKIFQbGATgKYCaFMWt8h7UAMsRlQdb9kjoiFwyPq8ATSocSgS4cg06FectgD4Mmb1BOhngibbILSJQAE94/AlwecCZHgoh0dElBFZYN5KDessrBjchJnQBawgAaClsRliZcRGHBqqYQ/IiT5wqdDUWqVWFGlJnDFkTy2QrBHrsFoQkL7XoqLBmBabj2Cpsb11NhGVEVZkRVmBGosKzIPkBhrM6fpQnXOcyIOocZURVmRFWYEVVhRlSFGVEVZkRVmBFVYUZUhRlRUGH7/5Q1F3KMWBVmRDmFyQNbnRj68VB/G+xAoopGLLtfcvhX0OLX2VTCyNgH2U7fKwx/facfDejZis2z/9JTkYBhDik4B1O/fudRGI2Y/F1yf4W5tlVhfLA3nMJ29Lsb5iOQwvSHd5yD7oGtJniEhJ8JCgPseMQe033j9kdw4NmKPoNtkgejsD7CERqMxyuMni9j5FGYe2CriUE/ExQG2PGIVWGHobBwhsmjME4QPqAHI8n0st79knsblPKAYGuADg7zwkrYOSw9+JiYwjkdmCAKc/+NESCLwuThdIr1Ndgvudz2QzOMhIkclrgwY2P6A8Yjtnk6haHTfFXhGz9AKywmQRTmLaGPkZ9yyp83sUxLtAGuNoM4kIGgClvz8+/aT2rJMUJqXKxn7LlfErGfQSrnZkxw4vZDM4yEKcyypZFbYy38sQ7tRFtzGBrIMocxs6Fde3QvaW7KkwbBk/dqxFfJFyF47iNGL+LA0LjYhgF3AoyEJwLR4F4iCvZnf4NUHhJsDxB3mRdWwjhXY6kLM9bCH8ffTlQURo/6A9BADoVxiOmugD72+elnHOe5NPB1zkhUVW6/pMEglYcEJ24/NMNK+OrH1xg0H2ashT9mbCcqCtPPkmggh8LYJpFk1t1++hVBu4Gv80aCKmxNzV0/9QILBsfFhgw42WO/pMEglYcE2wPEXeaFlTDcJnHPWtCDWTNjO1FVGMyJZBEMZFAYMZVA49qyd9devClPGkjdgeyXNBjk8vm2H5phJQyk/gcO+x5YS3/AmnraoAqjSPLnVlrps6W5FMbe4Dvc2dEpvMmveb/k/ga5PCDYHqCjy6wwE5YfyFwPrMU/39MEr7BMIAeDabEQ3IgUwimgeR3QUNiKsDThIgoLVjWF4Ee0X3Qt6GwoUq0KM6LMHLYgFtkvmXH7oRlLE772Cpsbq/NnacJVYUZUhRmBCsuK7AMUxur8WZpwncOMqHOYEVVhRlSFGVEVZkRVmBFVYUZUhRlRFWZEVZgRBRWW8be3HuQYsSrMiHIKkwe2OjH046H+NtiBRBWNeKj/v2QxHIrC+IEKfkyFDiHS+mSFFAQbKF2TYTgHU79+51EYjZj8XXJ/hbm2VWFGOIVhNuif6PZScArz2pCilFpaUAfdA1tNsMGEwhIPECWqEDxij+m+cfsVVp+tGIeGwkBiMIvlUZh7YKuJvkw7JGSUqEIEj9jF6Bu3KmxuNBXGO5ayKIwTtKObrE4vHbv22rsItQGW4b0Z7+NiJKzCx+Xo4Ydg/5+MSCIaHFeB1vbZL7keHJjC8BnbLAqTp7zhBacWl2mdSyD91AIN08rKlUgDTDEcHcp+yRXhwBSGgcepgp745SxAnRa4oqBkCOKg2uJ5JMq0nPLnTSzTEm1wgPslV4IDU1i2OYzTiI964+2qL9N0syPtxgpzWlEjvkq+CMFzrxl6Eb5D42IbBtw+UcieCLjKvUR1VWFGFFqHcXbo/of56leYqCihMGckqiq3X3JNOCyFZfssqeYp3ZDWtoDk1K+JYoVpnTcSVGFrau76KUUsGBwXGzLgZJ//X3JFOCiFZfs+jOcOyBsmGW9wfbv2sHx7+Psl14SDURitOzDqcgjxxA/sGF5X4BXmS4ZADnI+8R1WQ5jW3l17aJmKXQk30DpItjMSVPntiNJPR+SC4XEVeNLYzghdxGduVhVmhCosG8hBw5w3E9yIJKIpoEUcoCpsHIoorPmVUwn4EUUY46GzoUi1KsyIMnPYgqj/v2RV2LpQFWZEVZgRVWFGoMLkFlFRkQVVYRU5sdn8H+VmF1yX+G5+AAAAAElFTkSuQmCC;" parent="1" vertex="1">
          <mxGeometry x="440" y="-30" width="609" height="123" as="geometry" />
        </mxCell>
        <mxCell id="fm_Rgj1vhgTDJGin2IM0-1" value="" style="shape=image;verticalLabelPosition=bottom;labelBackgroundColor=default;verticalAlign=top;aspect=fixed;imageAspect=0;image=data:image/png,iVBORw0KGgoAAAANSUhEUgAAAsMAAAB7CAMAAACmVH1BAAAAAXNSR0IArs4c6QAAAARnQU1BAACxjwv8YQUAAADSUExURdTU1ADMmQAAAADMq5D3////////7rbmq9vmq2bu///uvP//3mbMmQDd3jrm3tv//9vuvDrMmTrdztv3/7bdqzrd3rbmvLbdmf/3zgDMvLb//2bd3mbm7v/33mbVvJDu7tvuzrb3/5Du/wDVzjrm7pDVmWbMqwDVvJD33pD37mbVmdv33mbm3mbu7v/37rZmAAA6kP//tmYAAGa2///bkDoAAAAAOpDb////25A6AAAAZtuQOtv/2wBmtv+2ZjqQ25A6OpA6Ztu2ZraQOjo6kDoAOmkb19wAAAAJcEhZcwAADsMAAA7DAcdvqGQAABFwSURBVHhe7V0Nm9y0Eeb2smlIQsMVSo4UaCnQ0BS6d8elXAg5+vn//1Jn3hmNZK+9K8uSV7vofZ7sytJ4NB+vZXlPVt5raDh6nJXEaqWFk8PReXaqqVitGocT0ThcCRqHk9E4XAkah5PROFwJGoeT0ThcCRqHk9E4XAkah5PROFwJluHw+YM14eFvpOpEcHSenWoqluTwev1I6k4Dszx7f/1YS8vhVFOxGIcfnZ2/v37yVCpPArM8OySHTy0VC3L47AME7rfP1usPL87OfvfR+uHH1Pb7j+jW9skFyzxnmcuLT19c/uEZiZIkJPpnVIJRz84/e7b+/IsXlxfepZ4T1EB4vLBHe1Jx/uDJF39cr/9EFUFSnnzxpdQ5W+vLxpLj8J85me/jTnZ58RWFggP5NY4pnz7hn75AE1oefrN1Ri0Y80wLVPIu9Zz4i3B4YY/2pIJatKKTFC05WyvMxqLzYSLkV8/o4+WLh998sP786ctvnxJfaVj4mpp8wqnu8cUZWl7+9Zv+GaK2Aox5JoY/IEe8S1tOYC6xsEd7UkEtl6+Qik5SPn9FM4/LCxWqMRtLcvghEip4TnFa/+0VHfO1TAfPfcI/pRCdUYjlKu+fUQ3GPBPD2RHv0pYT4PDCHu1JhVjLqRhOiuare1INWHAuwde1j8HZ+Xc03aXLeYzD0hKEWs/guiow5tlODjsn5JluWY/2pEKsHeOw5at7kmg+LJacDz/AtEr9/uBDTvEjmlbhtoXp2OML3ILdOEwtL7+VuURwBso1YMwzMVznEurSlhMyl1jWoz2poH+Xr84/o1R0kuKuQpev+rKxIIcpFOS/PBM8eSoX9HM9lpgBjsPSMnBGLRjzzLnkn43s+ck7wS2PF/ZoTyqoBaCLSz0A2R2HUePyVVU2luQwfdKT7vf6FPz9ev33j6mSbkkoUMtafpJSDrMk/z2pf0YtGPPs7Jx/ofqOmWsubTnBMo8W9mhPKqjuky/110GXFKpTDpvh9WVjGQ6fJHZ7hjlkXdiTCuHrEaJxOBmNw5WgcTgZjcOVoHE4GUfn2ammonE4GY3DlYA5vGpoOGo0DjccO957b10Sq5UWTg5H59mppqJxOBmNw5WgcTgZjcOVoHE4GY3DlaBxOBmNw5VgQQ5vrni1yGxkUjMfjcOVYDkOX9/8oKUxRLETam5f/+NHPR5DhLK7N06GhK9v9qrsIYYSU62QQiFkMliwQxAelXYmgOfw7evVavXTi/X6LX5yu/r5Db5Xq3fSnggL3FvWvRNRbkPN2/2SEcp67NlMdLRxeAQH4/BmxcMkkyMg2/3UsWkbLnB3b/ZSZNDtngmiJoJuMcoMEI64MDpIpsROKwoiq8EdwQGB0s4EcBx+660ow+Hb1/umElHxEzWNwyk4cQ6Ho2QZDoMhm19oosLqN+82K6rA/AXc3tCchdzWYZZleUrzC9fzFwtCTogGDicrM6BJhZ3qeIhnua0oiFwGe2PvqYG+nQB/u3P5n2WtLJTDt6+9jUU4fH3DHWzIRZktwdd79vAe3lOfbykcPn58Y7j7549iAp999y8yS9QohxOVeSDWKpzM4cxWFEQ2g52xzBSoEoENKcF9Eh5d0WOyZq0wjMPUNV91bBlfVWJ1z/gUKIfVS1KPIoeB3OdgcVkZHsTv7g3XEHCiUtep0QlFojIPajLhrca9UEpktqIgMhlsgvJLEzd6AZzMXaBdzy+M3jjMvRcZh1kxfXJ0mIEo6K9t1ImR0uInNQQx4a1eVFCjViUrM1gT1DoVsVBK5LaiHDIZbIKYhWC4E4E7/JJFJ7Mj/M9lrTCUw9c3bLf0XoLDGqpu/DRG9z+9iIjfhudwqka+ZihTWBMVTEM0hiihOmZYURCZDDZBaxcBzCpwMjsiziBrpaEcdr9LcM8lOKw64RgrRfz0wqFKfy9Fg9UQzASOmDPNSSUrE3SE14nz4cxWFEQmg03Q2kUAlO5x2F0jReE4TPcBWEA9F+CwXNrkHN1pEDWEie411CceKnhuhqdkvpaswM8TCMI9iZMtTo1GOVGZB2LthNfpz3Q5rSiIbAaHgut7KkBAlAZzCc2anlUOjsPsB4E6J69cKRuHXRA270g5a5b4oU90wVOpX5hEVoAZuOD59xn+1eYHH0vhcKoyA8c6kOGPCVBKZLaiIHIZ3G2H0RDg+fE71qoc1qwVh+dwISBwnTlAOuwOAT0zlW1hKoUcJXBwDDg6gyOxCIdt4jQvfn7+BbrlTsZUfY3DlWCZcdghV/ywbi1R2fUN3eEYblAXUPXE294sSoxYURRHZ3AkluXwSeHoPDvVVDQOJ6NxuBIwh4uieAcHw9F5dqqpaONwMto4XAkah5PROFwJGoeT0ThcCRqHk9E4XAkah5PROFwJFuQw/wU9D/JpmoPG4UqwHIex6Pf2tawRGQJWiYz+ESngrWrCQpVdiKA6FuoBJDxxi4kYSkw1QQqFUM7gLGnlstc9AZ7DWJXPf0jkxUirMvtL2OLJIUQ7i6U/ESt0wviMoJePSX+HbRx2wnnSyuV5HF5kfwm/amcAsc5KxCLoFsbHMOYShCctXUumxE4TCqKYwVnSutV3NPkch7GcWVCGw7pMOoOzsoq4cXgyTpzD4d2gDIeZHlhmT+7yN+y1wkZ3LNi8oyr0z+unYZOuw+bWt1iQLURDWA66xYR49ivcX6JvcJ60Spn/sUXy2kPY6ziUwwvtLyGf3AEmPlbgt1uwYwG/yiI1JIgB170PQ87hjRl30QuHTRyBgcBiW0woJTKbUBDFDM6RVgL0XuE1Pd6WIpp8xmHWK5cPf+lL1fk4LJrgrLyVTBVBgWOgLvheOZi2x8Hm6t/iq7TqhMKJc7Qgz5ULbTGhlMhsQkEUMxhHM9OKsnGY0et1HL1xmNUUGYfhhTiLmxdfJUHBERKjKx/yO1t815EmbnU3FmhSw0wcBQket5lCy4fp6blkTVDrVERBKZHbhHIoZnCOtBIgSf90W4per+NQDuOdVAJUFOCwhkqdVft7hdBZ3Hg4mN7Zq//ggjVNOMXFxgqEpbaYGKKEKjjp/SW2Dc6QVikLh6nEk+epHMb8hMAqSnBYdcJZfNiRL5gL1Ct8ZGdNhlo2bI2zDmFx4nKkFyJVBgpVzPRs58MLr1Pmw5lNKIhiBuPIpHsFaNQ+x9OqZaeSBXu9jsNxmAZ5qCcVBTgsl7bzCtcLb0tgBZ6a4SGZJ/8cVoQWDx3B5P/uzU8vnCYNtIrLEd2EyAc8IphCPt0KrMdGAAHi5oTXic90OU0oiGIGz08r1ECv35ai1+s4HIfZDwIbhWc6MS8Xh505evnpw6Mv2I4F+OGHa3hShb0KIENnsYMUAnNMOHzILSaUEr++/SW2DJ6fVj4dZfyjJu6u2+s4PIcLAYELhvaZME3KYTnIhUkscpTAwTHg6AyOxCIcttnPbHhNoFvufEzS1zhcCZYZhwvg8FtMzKJE218iH46Ww4fH0Xl2qqloHE5G43AlYA4XRfEODoaj8+xUU9HG4WS0cbgSNA4no3G4EjQOJ6NxuBI0DiejcbgSNA4no3G4EizIYf5T+CmhcbgSLMdhrPi9zbIRQR1Qzwq7hKWEebCMwQ7czc9xxs/00XGYlxHxmrhOkdcd8f+oxRWubiqMw7xax1ZODiFj/BaBeFbapewcXigH6CbS+FwcJi3XN/Rx94YX4l3fgHF0fPtfVp++CNNxGD7tXPyTL37LQDwr6FKGla8dFDc4ROQ6rxw+hhzGwmQsYOY7Aa9YNjPmcxgLfxuHQ+xzqXE4Dh0Ok0K702z4TVfzZj6HuQMssyfX+BvhsMKGl0ZTKW4jgjoAz7K6pDs+qBx/UavooFNYq8zrEpeO5TfYNfDkV9etq6Xajehjr7SB6l1nPR+3dcSiPw7b5YMxWRb4E2ZzWPTKp8yMqUMr8EsrEzYiqAPhsJbHJbyl4+Uk6KABNXBHGGFYcxLyG+waUCubVKil2o0z3jW41gEfB3REIuQwzx9ssxQ2j46UxbM5LArUOw4DVQQF7hT+0j/rjDM2uBFBHQgokcklz06QVU6CDrDg6hnUO12Tkd1g1wBrxXxnqXQj+uAVtPoPQtfHIR2RMA7LoK5dc4XE8/Y1vpPj5jgsJkE77hmy/4AVODIsAvP5UG6aIxsR1IGAEplcgqjJ+fxaVpFoz/SJyG6wa5ALAfY6S5VIpg8l/7Ht45COSHTmEgS9HLwOuXnM5bBaqPETz/sF7tHFD/cytsVkwo0I6kCHEllcgqjJDXKYMp9K4fwGuwb9vg/H0J0cHvBxSEck+hxe69v+NqcQ3XM5rKM6HBPv3JEvsNWwnDpDr+ykyVCLbURQBwJKZHLJsUeHkm0O3/5vTgSyG+wa9OE/tDTUZ432MeDjkI5IbHEYvwxTIOmYtwjQl/+lqxQgcDCXII5hqj1nI4I6EFAik0tInpdDpjtZlZfaqCIJ+Q12DcEmFWqpdmPGo2QfQz4O6IjEFodZN4ENwCRZ6mdyWCx18fN6XYHvkRM2IqgDISXyuCTZ9nKUiR8g5bJ694biiBtxCvIb7BqIezynpoKzVLsx41HyHwM+DuiIhONwMSBwOpU4LQglFoXEMTWaBzB4ESzCYb30TwyH4DDfapPvRo3DiTjVwGXzbNLGDXzvlnleAg5h8BJoHE7G0Xl2qqloHE5G43AlYA4XRfEODoaj8+xUU9HG4WS0cbgSNA4no3G4EjQOJ6NxuBI0DiejcbgSNA4no3G4EizI4Ql/Ad+DfJrmoHG4EizHYSwhvs2xt4Fq4vUhWfQBfiUNtVzfRKxxUs8KmSCFrAg43Olgu7fkZUUMDsgyG0soHIfxR0z5K6YUSblbrKYVP2PtPeGdF9kPCxyvVHFrMAcRnXCsecFCuzz6gB6Bxk80iGflTMiOZTiMgEQqyMxh5gVWDftlUcZh/4dxrQpq9sEFDq7tXPwTm3BhDSSz6OsDLcFa1DGIZ+VMyI4oDqevslVELvCa3Y9Hh8NEYuq/DIexhDhLwnXZdOPwVPw6OIzF/GU4zKTQTQfwjbhZYcNLoqkUs7eB0IupkUefApl050VzuKAJ2aGpsA6cqeEB20gmoYoXqvNiT3KBLOYaD3VhW4b1qILiG0soehzml0uKcFiuTvnkszETsgIuHbae30+RGhLEgBu8ByOvp+p1HozD8/Q5IOruvKnjcAkTskMMtg68qeGBZJirYNvIhg/OhQEZEYQrVOUaXGvWjSUUPQ6zZr7E8FKIcdhVWFVQsw/KYTlRneS8UUVQYLvhNv2zfnniu723gbTKhCKHPgcS9efZOTsQcLiICdkBg60DM7V7IJZSlTx2gPIYL0KbKtlYQrHUOCyWwT/cOvgSCAocQRaBF3zoNiCQJm6Ve5dqUjty6HMgcX+eo+UuBBwuY0JuwGDrwEztHhi3NAB8vMUt58KQTMBhrpLz7MMFIa6fOCw0H1ZDNeESgH6BjXcJx22Nr1CTcXsbmCY5mK3PQOL+PC83jg6HVbpXmGVCdvQ57PruHBi3tGpwwwcnPiSzk8MWhLh+4tDlcLHfJfQE+CdOuiNfYOPhAHUCx9hXk6EW7G3guoa/GfQZqMKft542H+71bIVZJmQHDLYOzIzugWQYVUbBLW458SEZ78EAhy0Icf3EocPhYr8Pw2qC+McTltS9DZymgMOz9EEXgCC689ZTn+kKmJAdYrB14E0ND2RYRBXfJPDAtc0t58JhN5ZQGIcxH2K1WiRN+JmEpmxWQV2xq4HIfiBwYrBdv3w6TnaF+L0NnKaQw3P08ekCrrDzpnK4hAnZIQYHPqqp3K13gGbpERs+qAsDMjs5HAQhrp8YOA4XAwI3YdzeA9MkASqGaA4fEY7O4EgswmEdqzLAayozVBkiLpHG4UqwzDhcALJubS5G9kqgap2y7EAmz5bbrmGuwdVtLKE4Wg4fHkfn2ammonE4GY3DlYA5rHeIhoYjReNww3Fjtfo/B9zpmdZzvPgAAAAASUVORK5CYII=;" vertex="1" parent="1">
          <mxGeometry x="680" y="470" width="707" height="123" as="geometry" />
        </mxCell>
        <mxCell id="fm_Rgj1vhgTDJGin2IM0-3" style="edgeStyle=orthogonalEdgeStyle;rounded=0;orthogonalLoop=1;jettySize=auto;html=1;exitX=1;exitY=0.5;exitDx=0;exitDy=0;entryX=0.467;entryY=-0.033;entryDx=0;entryDy=0;entryPerimeter=0;" edge="1" parent="1" source="gR9sVQ8ujYDy_p-osxNe-3" target="fm_Rgj1vhgTDJGin2IM0-1">
          <mxGeometry relative="1" as="geometry" />
        </mxCell>
      </root>
    </mxGraphModel>
  </diagram>
</mxfile>
